<svg width="129" height="66" viewBox="0 0 129 66" fill="none" xmlns="http://www.w3.org/2000/svg">
<path d="M32.92 16.39C32.92 18.62 32.5 20.68 31.66 22.56C30.82 24.44 29.67 26.08 28.21 27.48C26.75 28.87 25.01 29.96 23.01 30.72C21.01 31.49 18.83 31.87 16.46 31.87C14.09 31.87 11.89 31.49 9.87 30.72C7.85 29.95 6.1 28.87 4.64 27.48C3.18 26.09 2.04 24.45 1.22 22.56C0.41 20.68 0 18.62 0 16.39C0 14.16 0.41 12.1 1.22 10.22C2.03 8.34 3.17 6.7 4.64 5.3C6.1 3.91 7.85 2.83 9.87 2.06C11.89 1.29 14.09 0.91 16.46 0.91C18.83 0.91 21.02 1.29 23.01 2.06C25.01 2.83 26.74 3.91 28.21 5.3C29.67 6.69 30.82 8.33 31.66 10.22C32.5 12.11 32.92 14.16 32.92 16.39ZM25.25 16.39C25.25 15.23 25.06 14.1 24.69 13.01C24.32 11.92 23.76 10.98 23.02 10.19C22.28 9.4 21.36 8.76 20.27 8.27C19.18 7.78 17.91 7.54 16.47 7.54C15.03 7.54 13.76 7.78 12.67 8.27C11.58 8.76 10.66 9.4 9.92 10.19C9.18 10.98 8.62 11.92 8.25 13.01C7.88 14.1 7.69 15.23 7.69 16.39C7.69 17.55 7.87 18.74 8.25 19.81C8.62 20.88 9.18 21.81 9.92 22.6C10.66 23.39 11.58 24.03 12.67 24.52C13.76 25.01 15.03 25.25 16.47 25.25C17.91 25.25 19.18 25.01 20.27 24.52C21.36 24.03 22.28 23.39 23.02 22.6C23.76 21.81 24.32 20.88 24.69 19.81C25.06 18.74 25.25 17.6 25.25 16.39ZM49.38 50.49C49.38 52.77 48.95 54.85 48.09 56.73C47.23 58.61 46.04 60.22 44.53 61.54C43.02 62.86 41.25 63.89 39.23 64.61C37.21 65.33 35.03 65.69 32.71 65.69C30.39 65.69 28.21 65.33 26.19 64.61C24.17 63.89 22.4 62.87 20.89 61.54C19.38 60.21 18.19 58.61 17.33 56.73C16.47 54.85 16.04 52.77 16.04 50.49C16.04 48.21 16.47 46.13 17.33 44.25C18.19 42.37 19.38 40.76 20.89 39.44C22.4 38.12 24.17 37.09 26.19 36.37C28.21 35.65 30.38 35.29 32.71 35.29C35.04 35.29 37.21 35.65 39.23 36.37C41.25 37.09 43.02 38.11 44.53 39.44C46.04 40.76 47.23 42.37 48.09 44.25C48.95 46.13 49.38 48.21 49.38 50.49ZM23.72 50.49C23.72 52.95 24.52 55 26.13 56.63C27.73 58.26 29.93 59.07 32.72 59.07C35.51 59.07 37.71 58.26 39.31 56.63C40.91 55 41.72 52.96 41.72 50.49C41.72 48.02 40.92 45.98 39.31 44.35C37.71 42.72 35.51 41.91 32.72 41.91C29.93 41.91 27.73 42.72 26.13 44.35C24.53 45.98 23.72 48.02 23.72 50.49ZM61.3 19.8V26.42H51.05V33.25C51.05 33.85 50.67 34.27 49.9 34.51C49.13 34.74 48.21 34.86 47.15 34.86C44.59 34.86 43.32 34.33 43.32 33.26V0H51.06V5.72H61.31V12.34H51.06V19.8H61.31H61.3Z" fill="#222222"/>
<path d="M104.25 5.50995C105.37 5.50995 105.92 6.64995 105.92 8.92995C105.92 11.21 105.36 12.28 104.25 12.28H99.02V37.9399H106.34C107.46 37.9399 108.01 39.08 108.01 41.36C108.01 43.6399 107.45 44.7099 106.34 44.7099H67.01V37.95H73.63V12.27H67.01V5.50995H104.24H104.25ZM91.28 12.27H81.38V37.93H91.28V12.27ZM110.32 0.699951H118.06V21.0599H128.31V27.82H118.06V58.08C118.06 58.68 117.68 59.0999 116.91 59.34C116.14 59.57 115.22 59.6899 114.16 59.6899C111.6 59.6899 110.33 59.15 110.33 58.09V0.699951H110.32Z" fill="#222222"/>
</svg>
